HIERARCHY
ROOT mixamorig:Hips
{
	OFFSET 0.000000 102.625267 -0.521241
	CHANNELS 6 Xposition Yposition Zposition Xrotation Yrotation Zrotation
	JOINT mixamorig:Spine
	{
		OFFSET 0.000000 5.645721 -0.031929
		CHANNELS 3 Xrotation Yrotation Zrotation
		JOINT mixamorig:Spine1
		{
			OFFSET 0.000000 6.586685 -0.037251
			CHANNELS 3 Xrotation Yrotation Zrotation
			JOINT mixamorig:Spine2
			{
				OFFSET 0.000000 7.527618 -0.042572
				CHANNELS 3 Xrotation Yrotation Zrotation
				JOINT mixamorig:Neck
				{
					OFFSET 0.000000 8.468590 -0.047894
					CHANNELS 3 Xrotation Yrotation Zrotation
					JOINT mixamorig:Head
					{
						OFFSET 0.000000 5.998901 -1.158958
						CHANNELS 3 Xrotation Yrotation Zrotation
						JOINT mixamorig:HeadTop_End
						{
							OFFSET 0.000000 21.748810 -4.201760
							CHANNELS 3 Xrotation Yrotation Zrotation
							End Site
							{
								OFFSET 0.000000 22.150970 0.000000
							}
						}
					}
				}
				JOINT mixamorig:LeftShoulder
				{
					OFFSET 3.414614 7.343132 -0.058928
					CHANNELS 3 Xrotation Yrotation Zrotation
					JOINT mixamorig:LeftArm
					{
						OFFSET 6.829548 -2.246910 -0.022071
						CHANNELS 3 Xrotation Yrotation Zrotation
						JOINT mixamorig:LeftForeArm
						{
							OFFSET 24.198503 -0.424179 0.257802
							CHANNELS 3 Xrotation Yrotation Zrotation
							JOINT mixamorig:LeftHand
							{
								OFFSET 21.584717 -0.002335 0.669575
								CHANNELS 3 Xrotation Yrotation Zrotation
								JOINT mixamorig:LeftHandThumb1
								{
									OFFSET 2.193897 -1.259628 1.956942
									CHANNELS 3 Xrotation Yrotation Zrotation
									JOINT mixamorig:LeftHandThumb2
									{
										OFFSET 1.755203 -1.007660 1.565605
										CHANNELS 3 Xrotation Yrotation Zrotation
										JOINT mixamorig:LeftHandThumb3
										{
											OFFSET 2.535126 -0.998764 1.490660
											CHANNELS 3 Xrotation Yrotation Zrotation
											JOINT mixamorig:LeftHandThumb4
											{
												OFFSET 2.398251 -0.721657 1.023775
												CHANNELS 3 Xrotation Yrotation Zrotation
												End Site
												{
													OFFSET 2.205696 -0.773872 1.362551
												}
											}
										}
									}
								}
								JOINT mixamorig:LeftHandIndex1
								{
									OFFSET 7.166248 -0.069405 2.369028
									CHANNELS 3 Xrotation Yrotation Zrotation
									JOINT mixamorig:LeftHandIndex2
									{
										OFFSET 2.989986 -0.015724 0.245918
										CHANNELS 3 Xrotation Yrotation Zrotation
										JOINT mixamorig:LeftHandIndex3
										{
											OFFSET 2.739197 -0.058952 0.219132
											CHANNELS 3 Xrotation Yrotation Zrotation
											JOINT mixamorig:LeftHandIndex4
											{
												OFFSET 2.326500 -0.032570 0.188458
												CHANNELS 3 Xrotation Yrotation Zrotation
												End Site
												{
													OFFSET 2.326485 -0.032578 0.188548
												}
											}
										}
									}
								}
								JOINT mixamorig:LeftHandMiddle1
								{
									OFFSET 7.394897 0.286369 0.654762
									CHANNELS 3 Xrotation Yrotation Zrotation
									JOINT mixamorig:LeftHandMiddle2
									{
										OFFSET 3.376106 0.152466 -0.003692
										CHANNELS 3 Xrotation Yrotation Zrotation
										JOINT mixamorig:LeftHandMiddle3
										{
											OFFSET 3.185104 -0.185410 -0.047914
											CHANNELS 3 Xrotation Yrotation Zrotation
											JOINT mixamorig:LeftHandMiddle4
											{
												OFFSET 2.742905 0.223846 0.010354
												CHANNELS 3 Xrotation Yrotation Zrotation
												End Site
												{
													OFFSET 2.742889 0.224251 0.006757
												}
											}
										}
									}
								}
								JOINT mixamorig:LeftHandRing1
								{
									OFFSET 7.508747 0.282753 -1.072900
									CHANNELS 3 Xrotation Yrotation Zrotation
									JOINT mixamorig:LeftHandRing2
									{
										OFFSET 2.821857 0.317802 -0.177266
										CHANNELS 3 Xrotation Yrotation Zrotation
										JOINT mixamorig:LeftHandRing3
										{
											OFFSET 2.672325 0.088310 -0.196165
											CHANNELS 3 Xrotation Yrotation Zrotation
											JOINT mixamorig:LeftHandRing4
											{
												OFFSET 2.272652 -0.053627 -0.183955
												CHANNELS 3 Xrotation Yrotation Zrotation
												End Site
												{
													OFFSET 2.272919 -0.054016 -0.180438
												}
											}
										}
									}
								}
								JOINT mixamorig:LeftHandPinky1
								{
									OFFSET 7.285820 0.522377 -2.660948
									CHANNELS 3 Xrotation Yrotation Zrotation
									JOINT mixamorig:LeftHandPinky2
									{
										OFFSET 2.466278 0.082008 -0.249570
										CHANNELS 3 Xrotation Yrotation Zrotation
										JOINT mixamorig:LeftHandPinky3
										{
											OFFSET 1.940475 0.021858 -0.202004
											CHANNELS 3 Xrotation Yrotation Zrotation
											JOINT mixamorig:LeftHandPinky4
											{
												OFFSET 1.645287 0.153595 -0.153405
												CHANNELS 3 Xrotation Yrotation Zrotation
												End Site
												{
													OFFSET 1.645088 0.153801 -0.155289
												}
											}
										}
									}
								}
							}
						}
					}
				}
				JOINT mixamorig:RightShoulder
				{
					OFFSET -3.414604 7.343132 -0.036860
					CHANNELS 3 Xrotation Yrotation Zrotation
					JOINT mixamorig:RightArm
					{
						OFFSET -6.829551 -2.246986 0.022068
						CHANNELS 3 Xrotation Yrotation Zrotation
						JOINT mixamorig:RightForeArm
						{
							OFFSET -24.198494 -0.424141 0.158696
							CHANNELS 3 Xrotation Yrotation Zrotation
							JOINT mixamorig:RightHand
							{
								OFFSET -21.584698 -0.002243 0.686977
								CHANNELS 3 Xrotation Yrotation Zrotation
								JOINT mixamorig:RightHandThumb1
								{
									OFFSET -2.242882 -1.296806 1.978855
									CHANNELS 3 Xrotation Yrotation Zrotation
									JOINT mixamorig:RightHandThumb2
									{
										OFFSET -1.794239 -1.037361 1.583064
										CHANNELS 3 Xrotation Yrotation Zrotation
										JOINT mixamorig:RightHandThumb3
										{
											OFFSET -2.504150 -0.962166 1.471556
											CHANNELS 3 Xrotation Yrotation Zrotation
											JOINT mixamorig:RightHandThumb4
											{
												OFFSET -2.346046 -0.743172 0.992235
												CHANNELS 3 Xrotation Yrotation Zrotation
												End Site
												{
													OFFSET -2.157112 -0.792709 1.326359
												}
											}
										}
									}
								}
								JOINT mixamorig:RightHandIndex1
								{
									OFFSET -7.174488 -0.001839 2.366265
									CHANNELS 3 Xrotation Yrotation Zrotation
									JOINT mixamorig:RightHandIndex2
									{
										OFFSET -2.935219 -0.016853 0.287245
										CHANNELS 3 Xrotation Yrotation Zrotation
										JOINT mixamorig:RightHandIndex3
										{
											OFFSET -2.786827 -0.129890 0.255971
											CHANNELS 3 Xrotation Yrotation Zrotation
											JOINT mixamorig:RightHandIndex4
											{
												OFFSET -2.343559 0.168816 0.256164
												CHANNELS 3 Xrotation Yrotation Zrotation
												End Site
												{
													OFFSET -2.344208 0.169510 0.249690
												}
											}
										}
									}
								}
								JOINT mixamorig:RightHandMiddle1
								{
									OFFSET -7.274693 0.327965 0.656181
									CHANNELS 3 Xrotation Yrotation Zrotation
									JOINT mixamorig:RightHandMiddle2
									{
										OFFSET -3.309677 0.091591 0.032863
										CHANNELS 3 Xrotation Yrotation Zrotation
										JOINT mixamorig:RightHandMiddle3
										{
											OFFSET -3.186844 -0.122513 0.000971
											CHANNELS 3 Xrotation Yrotation Zrotation
											JOINT mixamorig:RightHandMiddle4
											{
												OFFSET -2.671951 -0.322540 -0.031001
												CHANNELS 3 Xrotation Yrotation Zrotation
												End Site
												{
													OFFSET -2.671928 -0.323486 -0.021820
												}
											}
										}
									}
								}
								JOINT mixamorig:RightHandRing1
								{
									OFFSET -7.453640 0.430428 -1.170334
									CHANNELS 3 Xrotation Yrotation Zrotation
									JOINT mixamorig:RightHandRing2
									{
										OFFSET -2.808174 0.165817 -0.117934
										CHANNELS 3 Xrotation Yrotation Zrotation
										JOINT mixamorig:RightHandRing3
										{
											OFFSET -2.730080 0.127754 -0.119542
											CHANNELS 3 Xrotation Yrotation Zrotation
											JOINT mixamorig:RightHandRing4
											{
												OFFSET -2.349426 0.078133 -0.107466
												CHANNELS 3 Xrotation Yrotation Zrotation
												End Site
												{
													OFFSET -2.349503 0.077988 -0.106043
												}
											}
										}
									}
								}
								JOINT mixamorig:RightHandPinky1
								{
									OFFSET -7.364456 0.463486 -2.604800
									CHANNELS 3 Xrotation Yrotation Zrotation
									JOINT mixamorig:RightHandPinky2
									{
										OFFSET -2.430134 0.174614 -0.251330
										CHANNELS 3 Xrotation Yrotation Zrotation
										JOINT mixamorig:RightHandPinky3
										{
											OFFSET -1.953583 0.007492 -0.220999
											CHANNELS 3 Xrotation Yrotation Zrotation
											JOINT mixamorig:RightHandPinky4
											{
												OFFSET -1.582039 0.276558 -0.139972
												CHANNELS 3 Xrotation Yrotation Zrotation
												End Site
												{
													OFFSET -1.581284 0.277252 -0.147002
												}
											}
										}
									}
								}
							}
						}
					}
				}
			}
		}
	}
	JOINT mixamorig:LeftUpLeg
	{
		OFFSET 6.620181 -8.816864 -0.447179
		CHANNELS 3 Xrotation Yrotation Zrotation
		JOINT mixamorig:LeftLeg
		{
			OFFSET 2.748989 -36.076775 0.650871
			CHANNELS 3 Xrotation Yrotation Zrotation
			JOINT mixamorig:LeftFoot
			{
				OFFSET 1.089303 -46.239017 1.019056
				CHANNELS 3 Xrotation Yrotation Zrotation
				JOINT mixamorig:LeftToeBase
				{
					OFFSET -0.371088 -10.380511 12.650617
					CHANNELS 3 Xrotation Yrotation Zrotation
					JOINT mixamorig:LeftToe_End
					{
						OFFSET -0.094684 -0.116785 6.663326
						CHANNELS 3 Xrotation Yrotation Zrotation
						End Site
						{
							OFFSET -0.094684 -0.116785 6.663326
						}
					}
				}
			}
		}
	}
	JOINT mixamorig:RightUpLeg
	{
		OFFSET -6.620174 -8.816818 -0.447182
		CHANNELS 3 Xrotation Yrotation Zrotation
		JOINT mixamorig:RightLeg
		{
			OFFSET -2.748991 -36.076790 0.753614
			CHANNELS 3 Xrotation Yrotation Zrotation
			JOINT mixamorig:RightFoot
			{
				OFFSET -1.089311 -46.239029 0.372114
				CHANNELS 3 Xrotation Yrotation Zrotation
				JOINT mixamorig:RightToeBase
				{
					OFFSET 0.371103 -10.380659 13.284531
					CHANNELS 3 Xrotation Yrotation Zrotation
					JOINT mixamorig:RightToe_End
					{
						OFFSET 0.094689 -0.116865 6.675873
						CHANNELS 3 Xrotation Yrotation Zrotation
						End Site
						{
							OFFSET 0.094687 -0.116865 6.675871
						}
					}
				}
			}
		}
	}
}
MOTION
Frames: 4
Frame Time: 0.016667
-64.824501 92.861450 -3.951366 20.856654 19.810962 -3.639840 21.190611 -11.734528 8.429961 -1.054462 -1.755678 1.914139 -1.004038 -1.661491 2.049357 -9.379733 1.093794 -1.085312 -25.374520 5.784386 -5.773564 0.000000 0.000000 -0.000000 0.539743 -2.974853 10.468558 -37.481083 -15.554731 -17.219361 -4.435256 -77.468934 -4.543046 16.573082 -20.172800 22.762642 1.858936 13.213996 8.761307 1.586192 -5.109678 -5.303446 -1.304660 -5.399567 -1.268833 0.000003 0.000004 0.000001 3.328271 -13.773935 28.389966 9.177713 8.666217 -53.568081 4.535317 6.204668 -31.987938 0.000003 -0.000004 0.000000 2.760690 -15.007981 13.134928 1.612402 6.892494 -29.329587 1.392852 5.985818 -30.692121 -0.000002 -0.000002 -0.000002 0.493356 -14.694957 -5.419878 -0.694581 2.956928 -11.385176 -0.358061 1.491354 -5.464781 -0.000001 0.000002 -0.000001 -0.346459 -6.736370 -11.284671 0.139768 -4.151496 0.350075 -0.228605 0.089692 -2.289155 -0.000000 -0.000000 -0.000000 0.256800 -0.281159 -0.776766 -7.192606 -38.760992 31.051245 -1.409045 55.131470 1.724679 -11.378754 0.132088 -9.179073 -3.032795 0.282049 0.029914 7.513716 -18.888941 0.745687 -1.591160 4.596636 0.224638 -0.000002 -0.000002 0.000004 0.101851 6.393914 -11.860460 8.976239 -7.581581 50.667993 5.229933 -5.614535 34.670689 0.000000 0.000000 -0.000000 0.269058 8.926828 0.794470 2.050356 -6.544244 31.490826 -0.035286 -3.755188 15.088561 -0.000000 0.000000 -0.000001 -0.988719 9.045800 15.813244 -0.386100 -3.399659 15.670331 -1.194944 -1.468098 6.275841 -0.000001 -0.000000 0.000002 -2.166574 7.623572 27.517024 0.454964 0.533108 -3.845536 -0.706738 -0.847820 6.781229 0.000001 0.000000 0.000003 -16.791938 9.641195 -4.125026 54.119629 -1.141322 6.808172 5.869043 -5.321953 -9.099239 -16.531083 0.000023 0.000003 0.000003 0.000000 0.000000 -62.964037 -1.722864 -16.275473 47.794399 1.068511 7.237864 3.328395 -6.612129 0.801940 -11.462807 0.000005 0.000017 0.000000 0.000000 0.000000 
-64.923294 93.202087 -4.679691 20.692944 21.039230 -4.759964 20.481152 -12.227791 9.072010 -1.413960 -2.008253 2.373819 -1.354471 -1.905927 2.519653 -9.055642 1.136567 -0.945603 -22.737073 5.937790 -5.511576 0.000000 -0.000001 0.000000 0.613509 -3.403831 9.672280 -36.552994 -16.593904 -18.206190 -6.302674 -81.098080 -6.377669 17.204459 -20.286476 21.819545 1.922138 12.971376 8.406399 1.684103 -4.705074 -5.173969 -1.266743 -5.304319 -1.280997 0.000002 0.000003 -0.000001 3.314479 -13.836009 27.648174 9.222344 8.679045 -53.760938 4.631870 6.279073 -32.491043 0.000002 -0.000003 0.000003 2.629555 -14.974474 12.198474 1.632533 6.928610 -29.514094 1.424948 6.048116 -31.003724 -0.000001 -0.000000 0.000002 0.286668 -14.487192 -6.609714 -0.699243 2.987120 -11.515955 -0.363200 1.512603 -5.558998 0.000001 0.000001 -0.000000 -0.392785 -6.388513 -12.686697 0.139506 -4.150968 0.347592 -0.221893 0.075087 -2.225307 -0.000000 -0.000001 0.000001 0.266783 -0.254805 -0.560393 -5.743839 -39.595310 32.596566 -1.468937 56.232927 1.773776 -10.271232 1.358830 -9.120065 -2.857353 -0.385395 -0.500167 7.127036 -16.686430 1.172675 -1.788022 5.337056 0.348791 0.000000 -0.000002 0.000003 0.128853 6.392759 -9.637580 9.441493 -7.689871 52.699448 5.919077 -6.015650 38.095424 0.000000 -0.000000 0.000000 0.084585 8.840395 3.309301 2.229000 -6.802220 32.977250 0.050641 -4.295024 17.420259 -0.000000 0.000000 0.000000 -1.302734 8.760670 18.763380 -0.381304 -3.562084 16.422449 -1.355001 -1.728939 7.338523 -0.000001 -0.000000 0.000000 -2.430600 6.997986 30.871871 0.455041 0.533223 -3.846121 -0.718089 -0.872845 6.895597 0.000000 -0.000000 -0.000003 -14.625983 10.132524 -3.916994 52.284251 -2.579673 6.378539 5.921964 -4.677524 -8.141148 -14.718030 0.000010 -0.000002 -0.000003 -0.000000 -0.000001 -60.971548 -1.466530 -14.749715 45.985055 -1.467132 6.043334 2.601425 -4.873255 1.888276 -10.613684 0.000008 0.000018 -0.000000 -0.000000 -0.000000 
-65.010086 93.462555 -5.425187 20.515655 22.234841 -5.868586 19.760144 -12.756908 9.706612 -1.632279 -2.229610 2.792808 -1.563654 -2.120660 2.944128 -8.746575 1.186317 -0.821215 -20.338125 6.140100 -5.279343 0.000000 0.000000 -0.000000 0.661208 -3.747603 8.996248 -35.638643 -17.747149 -19.159039 -10.642977 -84.679394 -10.685603 17.854623 -20.346582 20.950982 2.019583 12.867474 8.114545 1.726945 -4.510974 -5.104555 -1.247385 -5.261751 -1.291058 0.000000 -0.000000 -0.000000 3.310598 -13.912434 26.986130 9.253587 8.687909 -53.895858 4.703267 6.333196 -32.860867 -0.000001 -0.000002 0.000001 2.521614 -14.969017 11.386812 1.647721 6.955651 -29.652556 1.448152 6.092649 -31.227007 -0.000002 0.000001 0.000001 0.114357 -14.332501 -7.617308 -0.702846 3.010708 -11.618098 -0.366382 1.525812 -5.617607 -0.000002 -0.000001 0.000001 -0.428218 -6.113415 -13.858352 0.139316 -4.150573 0.345788 -0.215490 0.061162 -2.164587 0.000000 0.000001 0.000000 0.276531 -0.227650 -0.343948 -4.314849 -40.337581 34.143248 -1.528090 57.261772 1.822944 -9.221339 2.522676 -9.106805 -2.746805 -0.957069 -1.004934 6.849751 -15.321629 1.389251 -1.912351 5.836400 0.452661 -0.000000 0.000000 0.000002 0.142037 6.424163 -7.960372 9.882562 -7.776798 54.611734 6.613720 -6.366647 41.442217 -0.000001 0.000001 0.000001 -0.070843 8.776102 5.281804 2.400421 -7.036803 34.354598 0.165410 -4.819287 19.703482 0.000001 0.000000 -0.000000 -1.558691 8.506184 21.155498 -0.375059 -3.710382 17.109516 -1.493828 -1.990110 8.387585 -0.000001 0.000001 0.000002 -2.625019 6.452604 33.646786 0.455051 0.533280 -3.846414 -0.730349 -0.900073 7.019947 -0.000002 -0.000001 0.000000 -12.543577 10.542690 -3.582864 50.468872 -3.893310 6.038252 5.676367 -4.026610 -7.317716 -12.936031 0.000007 0.000006 0.000001 -0.000001 -0.000001 -59.183050 -1.241499 -13.375168 44.269062 -3.876468 4.982788 2.147315 -3.392877 2.921370 -9.711932 0.000004 0.000016 0.000000 -0.000000 -0.000000 
-65.087097 93.655762 -6.197832 20.318797 23.412691 -6.924902 19.006663 -13.390579 10.295509 -1.625253 -2.399527 3.155129 -1.547025 -2.286935 3.304141 -8.480817 1.249042 -0.721230 -18.366640 6.422236 -5.095038 0.000000 0.000001 -0.000000 0.675662 -3.912562 8.518562 -34.800166 -19.129541 -20.017937 -29.897343 -88.023236 -29.908910 18.614846 -20.328781 20.231744 2.154990 12.915622 7.898304 1.705246 -4.573023 -5.109690 -1.258563 -5.302819 -1.295967 0.000002 0.000005 0.000000 3.319289 -14.001904 26.443766 9.267057 8.691711 -53.954024 4.740001 6.360802 -33.050626 0.000004 -0.000006 -0.000003 2.446082 -14.998873 10.758327 1.656049 6.970429 -29.728183 1.459421 6.114112 -31.334842 -0.000000 -0.000002 0.000002 -0.012230 -14.252434 -8.361613 -0.704973 3.024841 -11.679304 -0.367401 1.530056 -5.636392 -0.000001 0.000000 0.000000 -0.455923 -5.940448 -14.698068 0.139252 -4.150429 0.345229 -0.210779 0.050982 -2.120143 0.000001 -0.000004 0.000000 0.286024 -0.199830 -0.134039 -2.926332 -40.981265 35.685840 -1.582644 58.163227 1.868789 -8.240365 3.567071 -9.127030 -2.732764 -1.352991 -1.451267 6.747578 -15.051430 1.355214 -1.940026 6.009467 0.523018 0.000002 -0.000001 0.000000 0.154241 6.514204 -7.014997 10.271141 -7.840884 56.287374 7.277959 -6.656503 44.561848 -0.000002 -0.000000 -0.000001 -0.175250 8.767305 6.516984 2.551562 -7.234158 35.533711 0.301697 -5.302324 21.836994 -0.000002 -0.000000 -0.000001 -1.734466 8.328471 22.778172 -0.368442 -3.834633 17.685610 -1.602992 -2.238036 9.375908 0.000001 0.000000 -0.000003 -2.746410 6.048252 35.612955 0.455098 0.533319 -3.846592 -0.742728 -0.927654 7.145764 -0.000002 0.000000 -0.000003 -10.520248 10.913567 -3.259699 48.646171 -4.953257 5.848927 5.239176 -3.508581 -6.616938 -11.287377 0.000010 0.000006 0.000000 0.000001 -0.000001 -57.586254 -1.131487 -12.225996 42.678837 -5.751922 4.156448 1.577816 -2.428170 3.306564 -8.853554 0.000004 0.000016 0.000000 -0.000001 -0.000000 
